<svg width="43" height="43" viewBox="0 0 43 43" fill="none" xmlns="http://www.w3.org/2000/svg">
<g filter="url(#filter0_d_1193_1823)">
<circle cx="21.3333" cy="17.3333" r="17.3333" fill="white"/>
</g>
<path fill-rule="evenodd" clip-rule="evenodd" d="M14.6786 10.6594H24.5452V17.4499L23.7386 16.8045C22.8569 16.0992 21.5666 16.263 20.8892 17.1662L20.2447 18.0255L18.513 15.9475C17.6743 14.9411 16.1106 14.9993 15.3491 16.0654L14.6786 17.0041L14.6786 10.6594ZM12.6786 19.8122C12.4877 20.1427 12.506 20.5462 12.7054 20.8546C12.8622 21.8028 13.6859 22.526 14.6786 22.526H15.1452V23.126C15.1452 24.7829 16.4884 26.126 18.1452 26.126H27.1452C28.8021 26.126 30.1452 24.7829 30.1452 23.126V14.126C30.1452 12.4692 28.8021 11.126 27.1452 11.126H26.5452V10.6594C26.5452 9.55479 25.6498 8.65936 24.5452 8.65936H14.6786C13.574 8.65936 12.6786 9.55479 12.6786 10.6594V19.8122ZM26.5452 13.126V19.1377C26.7203 19.4417 26.7258 19.8237 26.5452 20.1363V20.526C26.5452 21.6306 25.6498 22.526 24.5452 22.526H19.4372C19.1362 22.6991 18.7555 22.7087 18.4389 22.526H17.1452V23.126C17.1452 23.6783 17.593 24.126 18.1452 24.126H27.1452C27.6975 24.126 28.1452 23.6783 28.1452 23.126V14.126C28.1452 13.5737 27.6975 13.126 27.1452 13.126H26.5452ZM24.5452 20.0111L22.4892 18.3662L21.1026 20.2149L20.8952 20.526H24.5452V20.0111ZM18.4915 20.526L19.0398 19.7037L16.9765 17.2279L14.6786 20.445V20.526H18.4915ZM21.7786 14.0927C22.1468 14.0927 22.4452 13.7942 22.4452 13.426C22.4452 13.0578 22.1468 12.7594 21.7786 12.7594C21.4104 12.7594 21.1119 13.0578 21.1119 13.426C21.1119 13.7942 21.4104 14.0927 21.7786 14.0927ZM21.7786 15.5927C22.9752 15.5927 23.9452 14.6226 23.9452 13.426C23.9452 12.2294 22.9752 11.2594 21.7786 11.2594C20.582 11.2594 19.6119 12.2294 19.6119 13.426C19.6119 14.6226 20.582 15.5927 21.7786 15.5927Z" fill="#653CAD"/>
<defs>
<filter id="filter0_d_1193_1823" x="0" y="0" width="42.6667" height="42.6666" filterUnits="userSpaceOnUse" color-interpolation-filters="sRGB">
<feFlood flood-opacity="0" result="BackgroundImageFix"/>
<feColorMatrix in="SourceAlpha" type="matrix" values="0 0 0 0 0 0 0 0 0 0 0 0 0 0 0 0 0 0 127 0" result="hardAlpha"/>
<feOffset dy="4"/>
<feGaussianBlur stdDeviation="2"/>
<feComposite in2="hardAlpha" operator="out"/>
<feColorMatrix type="matrix" values="0 0 0 0 0 0 0 0 0 0 0 0 0 0 0 0 0 0 0.25 0"/>
<feBlend mode="normal" in2="BackgroundImageFix" result="effect1_dropShadow_1193_1823"/>
<feBlend mode="normal" in="SourceGraphic" in2="effect1_dropShadow_1193_1823" result="shape"/>
</filter>
</defs>
</svg>
