<svg width="56" height="56" viewBox="0 0 56 56" fill="none" xmlns="http://www.w3.org/2000/svg">
<g filter="url(#filter0_d_1199_1601)">
<circle cx="28" cy="24" r="24" fill="white"/>
</g>
<path fill-rule="evenodd" clip-rule="evenodd" d="M18.0166 13.9897H33.2166L33.2166 25.2691L30.7803 23.3201C29.8987 22.6148 28.6083 22.7786 27.9309 23.6818L26.5087 25.5782L23.4806 21.9446C22.6419 20.9381 21.0782 20.9964 20.3167 22.0624L18.0166 25.2826V13.9897ZM18.0166 28.7231V29.1898H24.0148L25.3037 27.2563L21.9442 23.2249L18.0303 28.7043L18.0166 28.7231ZM26.4185 29.1898H33.2166V27.8304L29.5309 24.8818L27.3666 27.7676L26.4185 29.1898ZM16.0166 13.9897C16.0166 12.8852 16.912 11.9897 18.0166 11.9897H33.2166C34.3212 11.9897 35.2166 12.8852 35.2166 13.9897V15.7898H36.8166C38.4735 15.7898 39.8166 17.1329 39.8166 18.7898V32.7898C39.8166 34.4466 38.4735 35.7898 36.8166 35.7898H22.8166C21.1598 35.7898 19.8166 34.4466 19.8166 32.7898V31.1898H18.0166C16.912 31.1898 16.0166 30.2943 16.0166 29.1898V13.9897ZM21.8166 31.1898V32.7898C21.8166 33.3421 22.2643 33.7898 22.8166 33.7898H36.8166C37.3689 33.7898 37.8166 33.3421 37.8166 32.7898V18.7898C37.8166 18.2375 37.3689 17.7898 36.8166 17.7898H35.2166V29.1898C35.2166 30.2943 34.3212 31.1898 33.2166 31.1898H21.8166ZM28.6166 20.0898C29.445 20.0898 30.1166 19.4182 30.1166 18.5898C30.1166 17.7613 29.445 17.0898 28.6166 17.0898C27.7882 17.0898 27.1166 17.7613 27.1166 18.5898C27.1166 19.4182 27.7882 20.0898 28.6166 20.0898ZM28.6166 21.5898C30.2735 21.5898 31.6166 20.2466 31.6166 18.5898C31.6166 16.9329 30.2735 15.5898 28.6166 15.5898C26.9598 15.5898 25.6166 16.9329 25.6166 18.5898C25.6166 20.2466 26.9598 21.5898 28.6166 21.5898Z" fill="#653CAD"/>
<path d="M38 9L50 9" stroke="#653CAD" stroke-width="2" stroke-linecap="round"/>
<path d="M44 3V15" stroke="#653CAD" stroke-width="2" stroke-linecap="round"/>
<defs>
<filter id="filter0_d_1199_1601" x="0" y="0" width="56" height="56" filterUnits="userSpaceOnUse" color-interpolation-filters="sRGB">
<feFlood flood-opacity="0" result="BackgroundImageFix"/>
<feColorMatrix in="SourceAlpha" type="matrix" values="0 0 0 0 0 0 0 0 0 0 0 0 0 0 0 0 0 0 127 0" result="hardAlpha"/>
<feOffset dy="4"/>
<feGaussianBlur stdDeviation="2"/>
<feComposite in2="hardAlpha" operator="out"/>
<feColorMatrix type="matrix" values="0 0 0 0 0 0 0 0 0 0 0 0 0 0 0 0 0 0 0.25 0"/>
<feBlend mode="normal" in2="BackgroundImageFix" result="effect1_dropShadow_1199_1601"/>
<feBlend mode="normal" in="SourceGraphic" in2="effect1_dropShadow_1199_1601" result="shape"/>
</filter>
</defs>
</svg>
