<svg width="21" height="21" viewBox="0 0 21 21" fill="none" xmlns="http://www.w3.org/2000/svg">
<path d="M13.8329 6.41289C13.74 6.31916 13.6294 6.24477 13.5075 6.194C13.3856 6.14323 13.2549 6.11709 13.1229 6.11709C12.9909 6.11709 12.8602 6.14323 12.7383 6.194C12.6165 6.24477 12.5059 6.31916 12.4129 6.41289L10.1229 8.71287L7.83289 6.41289C7.64458 6.22458 7.38919 6.1188 7.12289 6.1188C6.85659 6.1188 6.60119 6.22458 6.41289 6.41289C6.22458 6.60119 6.1188 6.85659 6.1188 7.12289C6.1188 7.38919 6.22458 7.64458 6.41289 7.83289L8.71287 10.1229L6.41289 12.4129C6.31916 12.5059 6.24477 12.6165 6.194 12.7383C6.14323 12.8602 6.11709 12.9909 6.11709 13.1229C6.11709 13.2549 6.14323 13.3856 6.194 13.5075C6.24477 13.6294 6.31916 13.74 6.41289 13.8329C6.50585 13.9266 6.61645 14.001 6.73831 14.0518C6.86017 14.1026 6.99088 14.1287 7.12289 14.1287C7.2549 14.1287 7.38561 14.1026 7.50746 14.0518C7.62932 14.001 7.73993 13.9266 7.83289 13.8329L10.1229 11.5329L12.4129 13.8329C12.5059 13.9266 12.6165 14.001 12.7383 14.0518C12.8602 14.1026 12.9909 14.1287 13.1229 14.1287C13.2549 14.1287 13.3856 14.1026 13.5075 14.0518C13.6294 14.001 13.74 13.9266 13.8329 13.8329C13.9266 13.74 14.001 13.6294 14.0518 13.5075C14.1026 13.3856 14.1287 13.2549 14.1287 13.1229C14.1287 12.9909 14.1026 12.8602 14.0518 12.7383C14.001 12.6165 13.9266 12.5059 13.8329 12.4129L11.5329 10.1229L13.8329 7.83289C13.9266 7.73993 14.001 7.62932 14.0518 7.50746C14.1026 7.38561 14.1287 7.2549 14.1287 7.12289C14.1287 6.99088 14.1026 6.86017 14.0518 6.73831C14.001 6.61645 13.9266 6.50585 13.8329 6.41289ZM17.1929 3.05289C16.2705 2.09779 15.167 1.33596 13.947 0.811867C12.7269 0.287777 11.4147 0.0119171 10.0869 0.000377055C8.75907 -0.0111529 7.44231 0.241857 6.21335 0.744667C4.98438 1.24748 3.86787 1.99001 2.92894 2.92894C1.99001 3.86787 1.24748 4.98438 0.744667 6.21335C0.241857 7.44231 -0.0111529 8.75907 0.000377055 10.0869C0.0119171 11.4147 0.287777 12.7269 0.811867 13.947C1.33596 15.167 2.09779 16.2705 3.05289 17.1929C3.97536 18.148 5.0788 18.9098 6.29884 19.4339C7.51888 19.958 8.83107 20.2339 10.1589 20.2454C11.4867 20.257 12.8035 20.0039 14.0325 19.5011C15.2614 18.9983 16.3779 18.2558 17.3169 17.3169C18.2558 16.3779 18.9983 15.2614 19.5011 14.0325C20.0039 12.8035 20.257 11.4867 20.2454 10.1589C20.2339 8.83107 19.958 7.51888 19.4339 6.29884C18.9098 5.0788 18.148 3.97536 17.1929 3.05289ZM15.7829 15.7829C14.475 17.0923 12.7535 17.9077 10.9117 18.0902C9.06997 18.2727 7.22189 17.811 5.68241 16.7837C4.14293 15.7564 3.00725 14.2271 2.46886 12.4564C1.93048 10.6857 2.02269 8.78307 2.7298 7.07267C3.43691 5.36232 4.71516 3.95004 6.34678 3.07645C7.9784 2.20286 9.86247 1.92202 11.6779 2.28176C13.4934 2.6415 15.128 3.61958 16.3032 5.04935C17.4784 6.47912 18.1215 8.27217 18.1229 10.1229C18.1265 11.1742 17.9215 12.2158 17.5198 13.1873C17.1182 14.1588 16.5278 15.0411 15.7829 15.7829Z" fill="#A081D9" fill-opacity="0.73"/>
</svg>
