<svg width="16" height="16" viewBox="0 0 16 16" fill="none" xmlns="http://www.w3.org/2000/svg">
<path d="M5.45337 2.66665H2.00004C1.82323 2.66665 1.65366 2.73689 1.52864 2.86191C1.40361 2.98694 1.33337 3.15651 1.33337 3.33332C1.33337 3.51013 1.40361 3.6797 1.52864 3.80472C1.65366 3.92975 1.82323 3.99999 2.00004 3.99999H5.45337C5.59351 4.38609 5.84913 4.71968 6.18548 4.95542C6.52184 5.19117 6.92263 5.31764 7.33337 5.31764C7.74412 5.31764 8.14491 5.19117 8.48126 4.95542C8.81762 4.71968 9.07324 4.38609 9.21337 3.99999H14C14.1769 3.99999 14.3464 3.92975 14.4714 3.80472C14.5965 3.6797 14.6667 3.51013 14.6667 3.33332C14.6667 3.15651 14.5965 2.98694 14.4714 2.86191C14.3464 2.73689 14.1769 2.66665 14 2.66665H9.21337C9.07324 2.28055 8.81762 1.94696 8.48126 1.71121C8.14491 1.47547 7.74412 1.349 7.33337 1.349C6.92263 1.349 6.52184 1.47547 6.18548 1.71121C5.84913 1.94696 5.59351 2.28055 5.45337 2.66665V2.66665ZM8.00004 3.33332C8.00004 3.46517 7.96094 3.59407 7.88769 3.7037C7.81443 3.81333 7.71031 3.89878 7.5885 3.94924C7.46668 3.9997 7.33263 4.0129 7.20331 3.98718C7.07399 3.96145 6.9552 3.89796 6.86197 3.80472C6.76873 3.71149 6.70524 3.5927 6.67952 3.46338C6.65379 3.33406 6.667 3.20001 6.71745 3.0782C6.76791 2.95638 6.85336 2.85226 6.96299 2.77901C7.07263 2.70575 7.20152 2.66665 7.33337 2.66665C7.51019 2.66665 7.67975 2.73689 7.80478 2.86191C7.9298 2.98694 8.00004 3.15651 8.00004 3.33332ZM9.45337 7.33332L2.00004 7.33332C1.82323 7.33332 1.65366 7.40356 1.52864 7.52858C1.40361 7.65361 1.33337 7.82317 1.33337 7.99999C1.33337 8.1768 1.40361 8.34637 1.52864 8.47139C1.65366 8.59641 1.82323 8.66665 2.00004 8.66665H9.45337C9.59351 9.05275 9.84913 9.38635 10.1855 9.62209C10.5218 9.85784 10.9226 9.9843 11.3334 9.9843C11.7441 9.9843 12.1449 9.85784 12.4813 9.62209C12.8176 9.38635 13.0732 9.05275 13.2134 8.66665H14C14.1769 8.66665 14.3464 8.59641 14.4714 8.47139C14.5965 8.34637 14.6667 8.1768 14.6667 7.99999C14.6667 7.82317 14.5965 7.65361 14.4714 7.52858C14.3464 7.40356 14.1769 7.33332 14 7.33332H13.2134C13.0732 6.94722 12.8176 6.61363 12.4813 6.37788C12.1449 6.14213 11.7441 6.01567 11.3334 6.01567C10.9226 6.01567 10.5218 6.14213 10.1855 6.37788C9.84913 6.61363 9.59351 6.94722 9.45337 7.33332ZM12 7.99999C12 8.13184 11.9609 8.26073 11.8877 8.37037C11.8144 8.48 11.7103 8.56545 11.5885 8.61591C11.4667 8.66636 11.3326 8.67957 11.2033 8.65384C11.074 8.62812 10.9552 8.56463 10.862 8.47139C10.7687 8.37816 10.7052 8.25937 10.6795 8.13005C10.6538 8.00073 10.667 7.86668 10.7175 7.74486C10.7679 7.62305 10.8534 7.51893 10.963 7.44567C11.0726 7.37242 11.2015 7.33332 11.3334 7.33332C11.5102 7.33332 11.6798 7.40356 11.8048 7.52858C11.9298 7.65361 12 7.82317 12 7.99999ZM4.12004 12H2.00004C1.82323 12 1.65366 12.0702 1.52864 12.1952C1.40361 12.3203 1.33337 12.4898 1.33337 12.6667C1.33337 12.8435 1.40361 13.013 1.52864 13.1381C1.65366 13.2631 1.82323 13.3333 2.00004 13.3333H4.12004C4.26018 13.7194 4.51579 14.053 4.85215 14.2888C5.18851 14.5245 5.58929 14.651 6.00004 14.651C6.41079 14.651 6.81157 14.5245 7.14793 14.2888C7.48429 14.053 7.7399 13.7194 7.88004 13.3333H14C14.1769 13.3333 14.3464 13.2631 14.4714 13.1381C14.5965 13.013 14.6667 12.8435 14.6667 12.6667C14.6667 12.4898 14.5965 12.3203 14.4714 12.1952C14.3464 12.0702 14.1769 12 14 12H7.88004C7.7399 11.6139 7.48429 11.2803 7.14793 11.0445C6.81157 10.8088 6.41079 10.6823 6.00004 10.6823C5.58929 10.6823 5.18851 10.8088 4.85215 11.0445C4.51579 11.2803 4.26018 11.6139 4.12004 12V12ZM6.66671 12.6667C6.66671 12.7985 6.62761 12.9274 6.55435 13.037C6.4811 13.1467 6.37698 13.2321 6.25516 13.2826C6.13335 13.333 5.9993 13.3462 5.86998 13.3205C5.74066 13.2948 5.62187 13.2313 5.52864 13.1381C5.4354 13.0448 5.37191 12.926 5.34618 12.7967C5.32046 12.6674 5.33366 12.5333 5.38412 12.4115C5.43458 12.2897 5.52003 12.1856 5.62966 12.1123C5.73929 12.0391 5.86819 12 6.00004 12C6.17685 12 6.34642 12.0702 6.47145 12.1952C6.59647 12.3203 6.66671 12.4898 6.66671 12.6667Z" fill="#653CAD"/>
</svg>
