<svg width="36" height="36" viewBox="0 0 36 36" fill="none" xmlns="http://www.w3.org/2000/svg">
<path d="M28.5 16.8333C27.8 16.8333 27.3333 17.3 27.3333 18C27.3333 21.3833 25.5833 24.4166 22.6666 26.05C18.2333 28.6166 12.5166 27.1 9.94998 22.6666C7.38331 18.2333 8.89998 12.5166 13.3333 9.94998C17.1833 7.73331 21.85 8.54998 24.7666 11.5833H21.9666C21.2666 11.5833 20.8 12.05 20.8 12.75C20.8 13.45 21.2666 13.9166 21.9666 13.9166H27.2166C27.9166 13.9166 28.3833 13.45 28.3833 12.75V7.49998C28.3833 6.79998 27.9166 6.33331 27.2166 6.33331C26.5166 6.33331 26.05 6.79998 26.05 7.49998V9.59998C23.8333 7.49998 21.0333 6.33331 18 6.33331C11.5833 6.33331 6.33331 11.5833 6.33331 18C6.33331 24.4166 11.5833 29.6666 18 29.6666C24.4166 29.6666 29.6666 24.4166 29.6666 18C29.6666 17.3 29.2 16.8333 28.5 16.8333Z" fill="url(#paint0_linear_1697_1136)"/>
<defs>
<linearGradient id="paint0_linear_1697_1136" x1="18" y1="6.33331" x2="18" y2="29.6666" gradientUnits="userSpaceOnUse">
<stop stop-color="#A081D9" stop-opacity="0.6"/>
<stop offset="0.5" stop-color="#8662C7"/>
<stop offset="1" stop-color="#A081D9" stop-opacity="0.6"/>
</linearGradient>
</defs>
</svg>
