<svg width="18" height="19" viewBox="0 0 18 19" fill="none" xmlns="http://www.w3.org/2000/svg">
<path d="M17 2.46748V17.4008C17 17.6954 16.7612 17.9341 16.4667 17.9341H1.53333C1.23878 17.9341 1 17.6954 1 17.4008V2.46748C1 2.17293 1.23878 1.93414 1.53333 1.93414H16.4667C16.7612 1.93414 17 2.17293 17 2.46748Z" stroke="#653CAD" stroke-width="2" stroke-linecap="round" stroke-linejoin="round"/>
<path d="M1 13.4897L7.22222 10.823L17 15.2675" stroke="#653CAD" stroke-width="2" stroke-linecap="round" stroke-linejoin="round"/>
<path d="M12.5557 8.15632C11.5739 8.15632 10.778 7.36039 10.778 6.37855C10.778 5.39671 11.5739 4.60077 12.5557 4.60077C13.5376 4.60077 14.3335 5.39671 14.3335 6.37855C14.3335 7.36039 13.5376 8.15632 12.5557 8.15632Z" stroke="#653CAD" stroke-width="2" stroke-linecap="round" stroke-linejoin="round"/>
</svg>
