<svg width="72" height="72" viewBox="0 0 72 72" fill="none" xmlns="http://www.w3.org/2000/svg">
<path d="M49.3683 38.5536C52.9151 35.7783 55.504 31.9727 56.7747 27.666C58.0455 23.3594 57.9349 18.7659 56.4584 14.5247C54.9818 10.2835 52.2128 6.60539 48.5365 4.00216C44.8601 1.39893 40.4593 0 35.9463 0C31.4333 0 27.0326 1.39893 23.3562 4.00216C19.6799 6.60539 16.9108 10.2835 15.4343 14.5247C13.9578 18.7659 13.8472 23.3594 15.1179 27.666C16.3887 31.9727 18.9776 35.7783 22.5244 38.5536C16.4468 40.9751 11.1439 44.9915 7.18101 50.1746C3.21812 55.3576 0.743796 61.513 0.0218218 67.9846C-0.0304384 68.4571 0.0113901 68.9352 0.144918 69.3916C0.278446 69.848 0.501059 70.2738 0.800047 70.6446C1.40388 71.3936 2.28215 71.8733 3.24164 71.9783C4.20114 72.0832 5.16326 71.8048 5.91636 71.2043C6.66945 70.6038 7.15183 69.7304 7.25738 68.7761C8.05178 61.7429 11.4239 55.2472 16.7295 50.5303C22.0351 45.8134 28.9022 43.2058 36.0187 43.2058C43.1352 43.2058 50.0023 45.8134 55.3079 50.5303C60.6135 55.2472 63.9856 61.7429 64.78 68.7761C64.8784 69.6602 65.3026 70.4767 65.9706 71.0681C66.6388 71.6594 67.5034 71.9837 68.3978 71.9783H68.7957C69.7441 71.8698 70.6109 71.3929 71.2072 70.6515C71.8036 69.9102 72.0811 68.9645 71.9794 68.0206C71.254 61.5306 68.7663 55.3594 64.7831 50.1684C60.7998 44.9774 55.4712 40.9623 49.3683 38.5536ZM35.9463 35.999C33.0842 35.999 30.2864 35.155 27.9066 33.5736C25.5269 31.9922 23.6721 29.7445 22.5768 27.1148C21.4815 24.4851 21.1949 21.5914 21.7533 18.7996C22.3117 16.0079 23.6899 13.4436 25.7137 11.4309C27.7375 9.41814 30.3161 8.04746 33.1232 7.49216C35.9303 6.93685 38.8399 7.22185 41.4842 8.31113C44.1284 9.4004 46.3885 11.245 47.9786 13.6117C49.5687 15.9784 50.4174 18.7609 50.4174 21.6073C50.4174 25.4242 48.8928 29.0848 46.179 31.7838C43.4651 34.4828 39.7843 35.999 35.9463 35.999Z" fill="#653CAD"/>
</svg>
