<svg width="80" height="80" viewBox="0 0 80 80" fill="none" xmlns="http://www.w3.org/2000/svg">
<path d="M40.0002 50.8C45.965 50.8 50.8002 45.9649 50.8002 40C50.8002 34.0352 45.965 29.2 40.0002 29.2C34.0354 29.2 29.2002 34.0352 29.2002 40C29.2002 45.9649 34.0354 50.8 40.0002 50.8Z" stroke="#653CAD" stroke-width="6.5" stroke-linecap="round" stroke-linejoin="round"/>
<path d="M67.4406 34.2234L63.4889 24.6813L68.8 18.4L61.6 11.2L55.3529 16.5386L45.6081 12.5311L43.3671 4H36.3316L34.0568 12.6441L24.5359 16.6575L18.4 11.2L11.2 18.4L16.4321 24.8399L12.541 34.4067L4 36.4V43.6L12.644 45.9598L16.6567 55.4789L11.2 61.6L18.4 68.8L24.8482 63.5451L34.2292 67.4043L36.4 76H43.6L45.7762 67.4075L55.3184 63.4558C56.9088 64.5927 61.6 68.8 61.6 68.8L68.8 61.6L63.4572 55.2978L67.41 45.7528L75.9996 43.5179L76 36.4L67.4406 34.2234Z" stroke="#653CAD" stroke-width="6.5" stroke-linecap="round" stroke-linejoin="round"/>
</svg>
