<svg width="82" height="82" viewBox="0 0 82 82" fill="none" xmlns="http://www.w3.org/2000/svg">
<path d="M5.16738 36.7631L2.40155 33.6588L2.40154 33.6588L5.16738 36.7631ZM33.001 77.0065V81.1641H37.1586V77.0065H33.001ZM49.001 77.0065H44.8433V81.1641H49.001V77.0065ZM76.8326 36.7631L74.0668 39.8673L74.0668 39.8673L76.8326 36.7631ZM41.3326 5.13313L38.5668 8.23737V8.23737L41.3326 5.13313ZM40.6674 5.13313L43.4332 8.23737V8.23737L40.6674 5.13313ZM9.15766 37.1364C9.15766 38.1796 8.71215 39.1733 7.93322 39.8673L2.40154 33.6588C1.40965 34.5426 0.842342 35.8079 0.842342 37.1364H9.15766ZM9.15766 76.5065V37.1364H0.842342V76.5065H9.15766ZM5.5 72.8488C7.52011 72.8488 9.15766 74.4864 9.15766 76.5065H0.842342C0.842342 79.0788 2.9276 81.1641 5.5 81.1641V72.8488ZM33.001 72.8488H5.5V81.1641H33.001V72.8488ZM37.1586 77.0065V57.1818H28.8433V77.0065H37.1586ZM37.1586 57.1818C37.1586 55.0598 38.8789 53.3395 41.001 53.3395V45.0242C34.2865 45.0242 28.8433 50.4673 28.8433 57.1818H37.1586ZM41.001 53.3395C43.123 53.3395 44.8433 55.0598 44.8433 57.1818H53.1586C53.1586 50.4673 47.7155 45.0242 41.001 45.0242V53.3395ZM44.8433 57.1818V77.0065H53.1586V57.1818H44.8433ZM76.5 72.8488H49.001V81.1641H76.5V72.8488ZM72.8423 76.5065C72.8423 74.4864 74.4799 72.8488 76.5 72.8488V81.1641C79.0724 81.1641 81.1577 79.0788 81.1577 76.5065H72.8423ZM72.8423 37.1364V76.5065H81.1577V37.1364H72.8423ZM74.0668 39.8673C73.2878 39.1733 72.8423 38.1796 72.8423 37.1364H81.1577C81.1577 35.8079 80.5904 34.5426 79.5984 33.6588L74.0668 39.8673ZM38.5668 8.23737L74.0668 39.8673L79.5984 33.6588L44.0984 2.02889L38.5668 8.23737ZM43.4332 8.23737C42.0464 9.47302 39.9536 9.473 38.5668 8.23737L44.0984 2.02889C42.3325 0.45543 39.6676 0.45541 37.9016 2.02889L43.4332 8.23737ZM7.93321 39.8673L43.4332 8.23737L37.9016 2.02889L2.40155 33.6588L7.93321 39.8673Z" fill="#653CAD"/>
</svg>
