<svg width="67" height="17" viewBox="0 0 67 17" fill="none" xmlns="http://www.w3.org/2000/svg">
<path fill-rule="evenodd" clip-rule="evenodd" d="M8.31532 16.6306C12.9077 16.6306 16.6306 12.9077 16.6306 8.31532C16.6306 3.72289 12.9077 0 8.31532 0C3.72289 0 0 3.72289 0 8.31532C0 12.9077 3.72289 16.6306 8.31532 16.6306ZM41.5766 8.31532C41.5766 12.9077 37.8537 16.6306 33.2613 16.6306C28.6688 16.6306 24.9459 12.9077 24.9459 8.31532C24.9459 3.72289 28.6688 0 33.2613 0C37.8537 0 41.5766 3.72289 41.5766 8.31532ZM66.5225 8.31532C66.5225 12.9077 62.7996 16.6306 58.2072 16.6306C53.6148 16.6306 49.8919 12.9077 49.8919 8.31532C49.8919 3.72289 53.6148 0 58.2072 0C62.7996 0 66.5225 3.72289 66.5225 8.31532Z" fill="#653CAD"/>
</svg>
