<svg width="80" height="76" viewBox="0 0 80 76" fill="none" xmlns="http://www.w3.org/2000/svg">
<path fill-rule="evenodd" clip-rule="evenodd" d="M8.90028 34.4331C8.90028 20.3317 20.3317 8.90037 34.433 8.90037C48.5343 8.90037 59.9657 20.3317 59.9657 34.4331C59.9657 48.5344 48.5343 59.9658 34.433 59.9658C20.3317 59.9658 8.90028 48.5344 8.90028 34.4331ZM34.433 0.585052C15.7392 0.585052 0.584961 15.7393 0.584961 34.4331C0.584961 53.1268 15.7392 68.2811 34.433 68.2811C43.232 68.2811 51.2469 64.9236 57.2663 59.4198C57.3317 59.4953 57.4003 59.569 57.472 59.6407L72.3172 74.4859C73.9408 76.1096 76.5733 76.1096 78.197 74.4859C79.8207 72.8623 79.8207 70.2298 78.197 68.6061L63.3518 53.7609C63.126 53.5351 62.8806 53.3407 62.6211 53.1776C66.1969 47.8111 68.281 41.3655 68.281 34.4331C68.281 15.7393 53.1267 0.585052 34.433 0.585052Z" fill="#653CAD"/>
</svg>
